<svg xmlns="http://www.w3.org/2000/svg" version="1.1" xmlns:xlink="http://www.w3.org/1999/xlink" xmlns:svgjs="http://svgjs.dev/svgjs" viewBox="0 0 800 800" opacity="0.66"><g stroke-width="0.5" stroke="#d38cff" fill="none"><circle r="300" cx="50%" cy="0"></circle><circle r="240" cx="50%" cy="0"></circle><circle r="180" cx="50%" cy="0"></circle><circle r="120" cx="50%" cy="0"></circle><circle r="60" cx="50%" cy="0"></circle></g><g stroke-width="0.5" stroke="#d38cff" fill="none"><circle r="300" cx="50%" cy="100%"></circle><circle r="240" cx="50%" cy="100%"></circle><circle r="180" cx="50%" cy="100%"></circle><circle r="120" cx="50%" cy="100%"></circle><circle r="60" cx="50%" cy="100%"></circle></g><g stroke-width="0.5" stroke="#d38cff" fill="none"><circle r="300" cx="0" cy="50%"></circle><circle r="240" cx="0" cy="50%"></circle><circle r="180" cx="0" cy="50%"></circle><circle r="120" cx="0" cy="50%"></circle><circle r="60" cx="0" cy="50%"></circle></g><g stroke-width="0.5" stroke="#d38cff" fill="none"><circle r="300" cx="100%" cy="50%"></circle><circle r="240" cx="100%" cy="50%"></circle><circle r="180" cx="100%" cy="50%"></circle><circle r="120" cx="100%" cy="50%"></circle><circle r="60" cx="100%" cy="50%"></circle></g></svg>